<svg xmlns="http://www.w3.org/2000/svg" xmlns:xlink="http://www.w3.org/1999/xlink" width="113.152" height="116" viewBox="0 0 113.152 116"><defs><filter id="a" x="0" y="0" width="113.152" height="116" filterUnits="userSpaceOnUse"><feOffset dy="16" input="SourceAlpha"/><feGaussianBlur stdDeviation="16" result="b"/><feFlood flood-color="#8fbae9" flood-opacity="0.161"/><feComposite operator="in" in2="b"/><feComposite in="SourceGraphic"/></filter></defs><g transform="translate(48 52) rotate(-90)"><g transform="translate(0 0)"><g transform="matrix(0, 1, -1, 0, 52, -48)" filter="url(#a)"><path d="M18.8,7.172a1.427,1.427,0,0,0-.248-.018H4.441l.308-.143a2.862,2.862,0,0,0,.809-.572L9.514,2.482a1.481,1.481,0,0,0,.207-1.9A1.431,1.431,0,0,0,7.575.4L.42,7.555a1.431,1.431,0,0,0,0,2.024h0l7.155,7.155a1.431,1.431,0,0,0,2.146-.143,1.481,1.481,0,0,0-.207-1.9l-3.95-3.964a2.862,2.862,0,0,0-.715-.522l-.429-.193H18.472a1.481,1.481,0,0,0,1.51-1.2A1.431,1.431,0,0,0,18.8,7.172Z" transform="translate(48 52) rotate(-90)" fill="#404041"/></g></g></g></svg>