<svg xmlns="http://www.w3.org/2000/svg" xmlns:xlink="http://www.w3.org/1999/xlink" width="38.647" height="41.2" viewBox="0 0 38.647 41.2"><defs><clipPath id="a"><rect width="38.647" height="41.2" fill="#ccc"/></clipPath></defs><g clip-path="url(#a)"><path d="M38.119,36.834l-9.508-9.948A16.059,16.059,0,0,0,32.4,16.5,16.2,16.2,0,1,0,16.2,32.7a15.779,15.779,0,0,0,9.244-2.905l9.6,10.036a2.125,2.125,0,0,0,2.993,0,2.1,2.1,0,0,0,.088-2.993ZM16.2,4.526A11.973,11.973,0,1,1,4.226,16.5,11.985,11.985,0,0,1,16.2,4.526Zm0,0" transform="translate(0 -0.036)" fill="#ccc"/></g></svg>